<svg xmlns="http://www.w3.org/2000/svg" viewBox="0 0 203.86 78.12"><defs><style>.cls-1{fill:none;stroke:#000;stroke-miterlimit:10;}</style></defs><title>MockupBanner</title><g id="Layer_1" data-name="Layer 1"><path d="M68.55,109.76H73v34.07H68.36V118.31l.24,1.5L60.21,139.1H56.88l-8.39-18.82.23-2v25.52H44.06V109.76h4.47l10,22.5Z" transform="translate(-44.06 -66.07)"/><path d="M86.46,142.63a10.6,10.6,0,0,1-4.21-4.41,14.08,14.08,0,0,1-1.49-6.6V122a14.08,14.08,0,0,1,1.49-6.6A10.6,10.6,0,0,1,86.46,111,13.5,13.5,0,0,1,99,111a10.64,10.64,0,0,1,4.2,4.41,14,14,0,0,1,1.49,6.6v9.65a14,14,0,0,1-1.49,6.6,10.64,10.64,0,0,1-4.2,4.41,13.42,13.42,0,0,1-12.56,0Zm10-4.1a6.45,6.45,0,0,0,2.49-2.7,8.93,8.93,0,0,0,.87-4v-10a8.93,8.93,0,0,0-.87-4,6.42,6.42,0,0,0-2.49-2.69,7.74,7.74,0,0,0-7.43,0,6.34,6.34,0,0,0-2.48,2.69,8.8,8.8,0,0,0-.88,4v10a8.8,8.8,0,0,0,.88,4,6.36,6.36,0,0,0,2.48,2.7,7.74,7.74,0,0,0,7.43,0Z" transform="translate(-44.06 -66.07)"/><path d="M120.06,144.19l-2.68-1.57a10.74,10.74,0,0,1-4.16-4.46,14.51,14.51,0,0,1-1.48-6.68v-9.35a14.51,14.51,0,0,1,1.48-6.68,10.74,10.74,0,0,1,4.16-4.46,12,12,0,0,1,6.22-1.58,11.62,11.62,0,0,1,5.39,1.25,11.43,11.43,0,0,1,4.12,3.55,13.3,13.3,0,0,1,2.24,5.32h-4.9a7.79,7.79,0,0,0-1.49-2.85,7.34,7.34,0,0,0-2.45-1.93,6.67,6.67,0,0,0-2.91-.68,6.6,6.6,0,0,0-3.65,1,6.67,6.67,0,0,0-2.44,2.82,9.68,9.68,0,0,0-.87,4.23v9.35a9.7,9.7,0,0,0,.87,4.22,6.42,6.42,0,0,0,6.09,3.82,7,7,0,0,0,2.92-.63A6.88,6.88,0,0,0,129,137a7.48,7.48,0,0,0,1.49-2.95h4.9a13.18,13.18,0,0,1-2.25,5.32,11.45,11.45,0,0,1-4.13,3.55,11.61,11.61,0,0,1-5.37,1.26Z" transform="translate(-44.06 -66.07)"/><path d="M142.14,109.76h4.78v34.07h-4.78Zm3.75,19.12,15.05-19.12h5.88l-21.63,26.29Zm5.67-3.23,3.78-3.49,12.91,21.67h-5.86Z" transform="translate(-44.06 -66.07)"/><path d="M186.17,142.7a9.77,9.77,0,0,1-4.09-4.34,15.3,15.3,0,0,1-1.41-6.85V109.76h4.79v21.91a8.21,8.21,0,0,0,1.87,5.77,7.94,7.94,0,0,0,10.63,0,8.17,8.17,0,0,0,1.89-5.77V109.76h4.78v21.75a15.3,15.3,0,0,1-1.41,6.85,9.74,9.74,0,0,1-4.1,4.34,14.81,14.81,0,0,1-13,0Z" transform="translate(-44.06 -66.07)"/><path d="M212.6,109.76h4.78v34.07H212.6Zm2.46,16.31H226a5,5,0,0,0,2.71-.73,4.75,4.75,0,0,0,1.82-2.06,7.73,7.73,0,0,0,0-6.16,4.86,4.86,0,0,0-1.82-2.08,5,5,0,0,0-2.71-.74h-10.9v-4.54h10.73a10.78,10.78,0,0,1,5.37,1.3,9,9,0,0,1,3.6,3.67,12.44,12.44,0,0,1,0,11,9,9,0,0,1-3.6,3.65,10.89,10.89,0,0,1-5.37,1.29H215.06Z" transform="translate(-44.06 -66.07)"/></g><g id="Layer_2" data-name="Layer 2"><polyline class="cls-1" points="121.44 65.43 161.44 0.93 203.44 65.43"/></g></svg>